<svg width="65" height="66" viewBox="0 0 65 66" fill="none" xmlns="http://www.w3.org/2000/svg">
<path d="M13.0113 53.0919C11.6605 51.8285 11.6605 49.7803 13.0113 48.5169L25.6253 36.7181L25.7645 36.5879L26 30.2349C26 28.4485 24.4514 27 22.5416 27H4.45845C2.54863 27 1 28.4485 1 30.2349V48.8561C1 49.8563 1.72916 50.5848 2.31836 51.397C2.77814 52.0326 17.6263 65.591 17.6263 65.591C19.9312 66.784 22.759 65.2243 22.759 62.7601L22.817 62.2646L13.0105 53.0919H13.0113Z" fill="white"/>
<path d="M64.0088 31.1458L49.0796 16.4777C49.0796 16.4777 49.0774 16.4798 49.0745 16.4827L49.0693 16.4777L34.309 1.97554C32.9852 0.67482 30.8389 0.67482 29.5151 1.97554L28.0194 3.4451C29.8625 6.19872 30.9363 9.49508 30.9363 13.0371C30.9363 17.0349 29.5697 20.7175 27.2708 23.6624C27.9913 24.2733 28.4486 25.1762 28.4486 26.1849L28.3092 30.1276L29.3454 31.1458C30.6693 32.4465 30.6693 34.5552 29.3454 35.8559L16.9822 48.003C16.4121 48.5631 16.0883 49.2732 16.0094 50.0037L16.0182 50.0124C15.9164 50.9754 16.241 51.9747 16.9925 52.7124L25.1127 60.6906C25.1127 60.6906 25.1113 60.6957 25.1105 60.6978L29.5151 65.0254C30.1066 65.6065 30.8633 65.9275 31.6362 65.9891H31.6414C31.6937 65.9935 31.7454 65.9964 31.7977 65.9978C31.8309 65.9993 31.8641 66 31.8973 66H31.9349C31.9799 66 32.0249 65.9986 32.0699 65.9971H32.0765C32.1333 65.9949 32.1901 65.9913 32.2462 65.9855C32.3 65.9804 32.3538 65.9739 32.4077 65.9667C32.5154 65.9515 32.6223 65.9312 32.7278 65.9058C32.9394 65.8551 33.1474 65.7841 33.348 65.6928C33.4985 65.6239 33.6445 65.5442 33.7861 65.4529C33.9742 65.3312 34.1527 65.1884 34.3179 65.0261L49.0781 50.524L64.0073 35.8559C64.6688 35.2059 65 34.353 65 33.5008C65 32.6486 64.6688 31.7965 64.0073 31.1458H64.0088Z" fill="white"/>
<path d="M23.9644 24C26.4594 21.4539 28 17.9585 28 14.0992C28 10.2399 26.574 7.00685 24.2438 4.48854C22.8462 2.97872 17.2424 5.18644 15.3062 4.40815C13.7025 3.76359 15.8324 0 14 0C6.26778 0 0 6.3126 0 14.0985C0 17.9578 1.54136 21.4532 4.03556 23.9993H23.9644V24Z" fill="#9874FF"/>
</svg>
